<svg width="60" height="60" viewBox="0 0 60 60" fill="none" xmlns="http://www.w3.org/2000/svg">
<rect width="60" height="60" fill="white"/>
<path d="M53.0203 47.4956V17.026C53.0203 16.2973 52.4241 15.701 51.6954 15.701H9.3123C8.58355 15.701 7.9873 16.2973 7.9873 17.026V47.4956C7.98819 47.4956 53.1316 47.4956 53.0203 47.4956Z" fill="#2B2F33"/>
<path d="M51.3632 17.3573H9.64355V45.8359H51.3632V17.3573Z" fill="white"/>
<path d="M56.991 47.4957H4V48.3243H56.991V47.4957Z" fill="#CFDCE5"/>
<path d="M54.3506 49.9796H6.65878L4.00879 48.3242H56.9998L54.3506 49.9796Z" fill="#AAC1CE"/>
<g opacity="0.7">
<path opacity="0.7" d="M34.9503 47.4957H26.041C26.1258 47.9604 26.5401 48.3243 27.0586 48.3243H33.9318C34.4512 48.3243 34.8664 47.9604 34.9503 47.4957Z" fill="white"/>
</g>
<path d="M38.4781 21.7364C43.0385 21.7364 46.7354 18.0395 46.7354 13.479C46.7354 8.91863 43.0385 5.22168 38.4781 5.22168C33.9177 5.22168 30.2207 8.91863 30.2207 13.479C30.2207 18.0395 33.9177 21.7364 38.4781 21.7364Z" fill="white"/>
<path d="M38.4782 21.9564C33.8036 21.9564 30 18.1528 30 13.4782C30 8.80362 33.8036 5 38.4782 5C43.1528 5 46.9564 8.80362 46.9564 13.4782C46.9564 18.1528 43.1528 21.9564 38.4782 21.9564ZM38.4782 5.44166C34.0465 5.44166 30.4417 9.04653 30.4417 13.4782C30.4417 17.9099 34.0465 21.5147 38.4782 21.5147C42.9099 21.5147 46.5147 17.9099 46.5147 13.4782C46.5147 9.04653 42.9099 5.44166 38.4782 5.44166Z" fill="#249052"/>
<path d="M38.0826 18.0079V16.8975C37.3618 16.8754 36.641 16.6687 36.2285 16.394L36.5377 15.3181C36.9846 15.5822 37.6251 15.8216 38.3229 15.8216C39.0428 15.8216 39.5357 15.4674 39.5357 14.918C39.5357 14.403 39.1347 14.0709 38.2884 13.7617C37.0871 13.3271 36.3089 12.7777 36.3089 11.7141C36.3089 10.7301 36.9952 9.97398 38.1515 9.76905V8.64722H39.0896V9.71075C39.8104 9.73371 40.3024 9.90596 40.669 10.0888L40.3598 11.1409C40.0843 11.0154 39.5816 10.7522 38.8034 10.7522C38.0022 10.7522 37.716 11.1647 37.716 11.5534C37.716 12.0224 38.1286 12.2857 39.1011 12.6752C40.3819 13.1557 40.9552 13.7741 40.9552 14.7917C40.9552 15.7651 40.2795 16.6228 39.0216 16.8286V18.0079H38.0826Z" fill="#249052"/>
<path d="M20.3829 32.7659C23.9081 32.7659 26.7659 29.9081 26.7659 26.3829C26.7659 22.8577 23.9081 20 20.3829 20C16.8577 20 14 22.8577 14 26.3829C14 29.9081 16.8577 32.7659 20.3829 32.7659Z" fill="#249052"/>
<path d="M22.5258 29.1495C22.1981 29.3483 21.6425 29.5461 21.0074 29.5461C20.1055 29.5461 19.292 29.1893 18.7655 28.5241C18.4484 28.1575 18.2302 27.6602 18.141 27.0463H17.5059V26.4403H18.0615C18.0615 26.39 18.0615 26.3317 18.0615 26.2813C18.0615 26.1621 18.0712 26.0331 18.0809 25.9245H17.5059V25.3097H18.1701C18.2894 24.7046 18.557 24.1887 18.9148 23.8116C19.4501 23.2162 20.1744 22.8796 21.0577 22.8796C21.6531 22.8796 22.1486 23.028 22.4755 23.187L22.2281 24.1101C21.9702 23.9706 21.563 23.8416 21.1169 23.8416C20.6205 23.8416 20.1841 24.02 19.8564 24.3875C19.6488 24.6048 19.4995 24.9325 19.42 25.3097H22.0188V25.9245H19.3008C19.2814 26.0331 19.2814 26.1524 19.2814 26.2716C19.2814 26.3317 19.2814 26.3812 19.2814 26.4403H22.0197V27.0463H19.3909C19.4598 27.4721 19.6091 27.7901 19.8166 28.018C20.1541 28.3854 20.6302 28.5542 21.1461 28.5542C21.6328 28.5542 22.0886 28.3854 22.3165 28.2556L22.5258 29.1495Z" fill="white"/>
<path d="M39 43C43.4183 43 47 39.4183 47 35C47 30.5817 43.4183 27 39 27C34.5817 27 31 30.5817 31 35C31 39.4183 34.5817 43 39 43Z" fill="#B9B9B9"/>
<rect x="34.8203" y="31.2599" width="8.1131" height="1.20194" fill="white"/>
<rect x="34.8203" y="32.9126" width="8.1131" height="1.20194" fill="white"/>
<rect x="39.9287" y="32.9126" width="7.36188" height="2.1034" transform="rotate(90 39.9287 32.9126)" fill="white"/>
</svg>
