<svg width="60" height="60" viewBox="0 0 60 60" fill="none" xmlns="http://www.w3.org/2000/svg">
<rect width="60" height="60" fill="white"/>
<path d="M12 5.5H47C47.8284 5.5 48.5 6.17157 48.5 7V55C48.5 55.8284 47.8284 56.5 47 56.5H12C11.1716 56.5 10.5 55.8284 10.5 55V7C10.5 6.17157 11.1716 5.5 12 5.5Z" fill="white" stroke="#2B2F33"/>
<path d="M44.6618 16.1069H25.1699V17.1876H44.6618V16.1069Z" fill="#B9B9B9"/>
<path d="M44.6618 19.3569H25.1699V20.4376H44.6618V19.3569Z" fill="#B9B9B9"/>
<path d="M44.6618 22.6069H25.1699V23.6876H44.6618V22.6069Z" fill="#B9B9B9"/>
<path d="M44.6618 25.8569H25.1699V26.9376H44.6618V25.8569Z" fill="#B9B9B9"/>
<path d="M44.6614 29.1069H14.3389V30.1876H44.6614V29.1069Z" fill="#B9B9B9"/>
<path d="M44.6614 32.3569H14.3389V33.4376H44.6614V32.3569Z" fill="#B9B9B9"/>
<path d="M44.6614 35.6069H14.3389V36.6876H44.6614V35.6069Z" fill="#B9B9B9"/>
<path d="M44.6614 38.8569H14.3389V39.9376H44.6614V38.8569Z" fill="#B9B9B9"/>
<path d="M44.6614 42.1069H14.3389V43.1876H44.6614V42.1069Z" fill="#B9B9B9"/>
<path d="M44.6614 45.3569H14.3389V46.4376H44.6614V45.3569Z" fill="#B9B9B9"/>
<path d="M44.6614 48.6069H14.3389V49.6876H44.6614V48.6069Z" fill="#B9B9B9"/>
<path d="M44.6614 51.8569H14.3389V52.9376H44.6614V51.8569Z" fill="#B9B9B9"/>
<path d="M44.6532 9.0625H14.3389V12.3125H44.6532V9.0625Z" fill="#B9B9B9"/>
<path d="M16.5565 23.5424L15.4355 27H14L17.6532 16H19.3306L23 27H21.5161L20.371 23.5424H16.5565ZM20.0806 22.4284L19.0242 19.2596C18.7823 18.5416 18.629 17.8897 18.4677 17.2543H18.4355C18.2742 17.9062 18.0968 18.5746 17.8952 19.2431L16.8387 22.4284H20.0806Z" fill="#249052"/>
</svg>
