<svg width="61" height="60" viewBox="0 0 61 60" fill="none" xmlns="http://www.w3.org/2000/svg">
<rect x="0.121094" width="60" height="60" fill="white"/>
<path d="M4.1416 39.5854V6.81239C4.1416 6.2463 4.62598 5.76001 5.19187 5.76001H54.7774C55.3424 5.76001 55.8277 6.24536 55.8277 6.81239V39.5854H4.1416Z" fill="#2B2F33"/>
<path d="M55.8267 39.5853V43.793C55.8267 44.3591 55.3424 44.8453 54.7765 44.8453H5.19089C4.62594 44.8453 4.14062 44.36 4.14062 43.793V39.5853H55.8267Z" fill="#CFDCE5"/>
<path d="M41.0526 52.2898H18.9248V53.3422H41.0526V52.2898Z" fill="#CFDCE5"/>
<path d="M37.3339 52.29H22.6357L23.686 44.8455H36.2836L37.3339 52.29Z" fill="#AAC1CE"/>
<path d="M53.7272 7.86475H6.24121V37.4815H53.7272V7.86475Z" fill="white"/>
<path d="M36.2827 44.8453H23.6851L23.0986 49.0004L36.472 46.1831L36.2827 44.8453Z" fill="#8BA0AE"/>
<path d="M59.9618 53.301H0V54.2398H59.9618V53.301Z" fill="#8BA0AE"/>
<path d="M48.3463 53.3424H36.3324C35.0564 53.3424 34.0117 52.2956 34.0117 51.017V25.6266C34.0117 24.348 35.0554 23.3013 36.3324 23.3013H48.3473C49.6233 23.3013 50.668 24.348 50.668 25.6266V51.017C50.667 52.2956 49.6224 53.3424 48.3463 53.3424Z" fill="#2B2F33"/>
<path d="M49.5686 25.6716H35.1104V49.3572H49.5686V25.6716Z" fill="white"/>
<path d="M44.5081 24.7328H41.5493C41.4163 24.7328 41.3076 24.6242 41.3076 24.4911C41.3076 24.3581 41.4163 24.2494 41.5493 24.2494H44.5081C44.6411 24.2494 44.7498 24.3581 44.7498 24.4911C44.7498 24.6242 44.6411 24.7328 44.5081 24.7328Z" fill="#CFDCE5"/>
<path d="M40.1719 24.7338C40.3057 24.7338 40.4141 24.6254 40.4141 24.4916C40.4141 24.3578 40.3057 24.2494 40.1719 24.2494C40.0381 24.2494 39.9297 24.3578 39.9297 24.4916C39.9297 24.6254 40.0381 24.7338 40.1719 24.7338Z" fill="#CFDCE5"/>
<path d="M42.3393 52.4955C41.7088 52.4955 41.1963 51.981 41.1963 51.3502C41.1963 50.7193 41.7097 50.2048 42.3393 50.2048C42.9689 50.2048 43.4823 50.7193 43.4823 51.3502C43.4823 51.981 42.9698 52.4955 42.3393 52.4955ZM42.3393 50.4386C41.8381 50.4386 41.4305 50.847 41.4305 51.3492C41.4305 51.8515 41.8381 52.2598 42.3393 52.2598C42.8406 52.2598 43.2481 51.8515 43.2481 51.3492C43.2481 50.847 42.8406 50.4386 42.3393 50.4386Z" fill="#CFDCE5"/>
<path d="M40.0264 34.0653C40.0264 34.0653 40.0264 34.0296 40.0264 33.641C40.0264 33.1237 40.6035 32.3539 41.74 32.3013V31.9408C41.3708 31.7306 41.1216 31.3344 41.1216 30.8791C41.1216 30.205 41.6669 29.6577 42.3405 29.6577C43.0132 29.6577 43.5594 30.2041 43.5594 30.8791C43.5594 31.3344 43.3102 31.7306 42.9411 31.9408V32.3004C44.0766 32.3539 44.6547 33.1228 44.6547 33.64C44.6547 34.0296 44.6547 34.0644 44.6547 34.0644H40.0264V34.0653Z" fill="white"/>
<path d="M40 34H45V35.0588H40V34ZM43.2004 40H41.7996V36.7059H40V35.6471H45V36.7059H43.2004V40Z" fill="#249052"/>
<path d="M25.2144 37.4984C25.3422 35.1238 28.0331 34.2486 30.3397 31.9991C32.6462 29.7496 31.8769 26 31.8769 26C30.3397 26.3747 30.9798 27.5001 30.3397 29.4994C29.6996 31.4986 27.2645 31.9991 27.2645 31.9991C27.2645 31.9991 28.546 30.9995 29.3146 29.4994C30.0832 27.9993 28.2896 28.4998 28.2896 28.4998C28.2896 28.4998 27.3924 29.7496 24.1893 31.9992C20.9863 34.2486 22.6514 37.4984 22.6514 37.4984H25.2144Z" fill="#249052"/>
<path d="M16.7855 37.4984H19.3479C19.3479 37.4984 21.0137 34.2486 17.8106 31.9992C14.6076 29.7496 13.7104 28.4998 13.7104 28.4998C13.7104 28.4998 11.9167 28 12.6853 29.4994C13.4539 30.9995 14.7354 31.9991 14.7354 31.9991C14.7354 31.9991 12.301 31.4993 11.6602 29.4994C11.0194 27.4995 11.6602 26.3747 10.123 26C10.123 26 9.35437 29.7496 11.6602 31.9991C13.9661 34.2486 16.6577 35.1238 16.7855 37.4984Z" fill="#249052"/>
<path d="M27.8597 21.8606C27.8597 18.0717 24.788 15 20.9992 15C17.2104 15 14.1387 18.0717 14.1387 21.8606C14.1387 25.6494 17.2104 28.7211 20.9992 28.7211C24.788 28.7211 27.8597 25.6494 27.8597 21.8606ZM20.9992 27.3461C17.9742 27.3461 15.5137 24.8856 15.5137 21.8606C15.5137 18.8356 17.9742 16.375 20.9992 16.375C24.0242 16.375 26.4847 18.8356 26.4847 21.8606C26.4847 24.8856 24.0242 27.3461 20.9992 27.3461Z" fill="#249052"/>
<path d="M18 19H24V20.0588H18V19ZM21.8404 25H20.1596V21.7059H18V20.6471H24V21.7059H21.8404V25Z" fill="#27AE60"/>
</svg>
