<svg width="55" height="55" viewBox="0 0 55 55" fill="none" xmlns="http://www.w3.org/2000/svg">
<path d="M41.6217 40.0845L36.0938 38.2422H18.9062L13.3783 40.0845C7.69893 41.9783 3.86719 47.9381 3.86719 53.9258H51.1328C51.1328 47.9381 47.3011 41.9783 41.6217 40.0845Z" fill="#2B2F33"/>
<path d="M38.2046 17.3357L35.6641 16.9727C31.7593 16.4151 28.1402 14.6051 25.3516 11.8164C22.6467 11.8164 20.0997 13.0904 18.4766 15.2539L16.8008 17.4883C16.8878 19.9966 17.1155 22.5876 17.4818 25.0293C17.9378 28.0476 18.3197 30.8894 21.3104 33.4812L21.2566 33.5414C20.469 35.1167 19.6856 36.6834 18.9063 38.2422C20.299 42.4185 22.3725 46.4429 25.1314 50.123L27.5 53.9258L29.8687 50.123C30.9354 48.7008 31.9086 47.2141 32.783 45.6736C34.1236 43.3136 35.2322 40.8246 36.0938 38.2422L33.7434 33.5414L33.6897 33.4812C35.4922 31.914 36.749 29.6871 37.1476 27.297C37.357 26.0326 37.4299 25.6295 37.5246 24.9863C37.8952 22.5081 38.1208 19.8773 38.2046 17.3357Z" fill="#CFDCE5"/>
<path d="M38.2046 17.3357L35.6641 16.9727C31.7593 16.4151 28.1402 14.6051 25.3516 11.8164C22.6467 11.8164 20.0997 13.0904 18.4766 15.2539L16.8008 17.4883C16.8878 19.9966 17.1155 22.5876 17.4818 25.0293C17.9378 28.0476 18.3197 30.8894 21.3104 33.4812L21.2566 33.5414C20.4689 35.1167 27.6074 39.8535 27.6074 39.8535L33.7434 33.5414L33.6896 33.4812C35.4922 31.914 36.749 29.6871 37.1476 27.297C37.357 26.0326 37.4299 25.6295 37.5246 24.9863C37.8952 22.5081 38.1219 19.8773 38.2057 17.3357H38.2046Z" fill="white"/>
<path d="M42.5389 16.1133V22.8809C42.5389 24.0679 41.5774 25.0293 40.3904 25.0293H37.8123L37.5244 24.9863C37.895 22.5081 38.1217 19.8773 38.2055 17.3357C38.2194 16.9254 38.2291 16.5183 38.2334 16.1133H38.242H42.5389Z" fill="#7DCEA0"/>
<path d="M28.4614 5.37109C33.8615 5.37109 38.2454 9.79043 38.2422 15.1905C38.2422 15.7337 38.2308 16.598 38.2057 17.3357C35.3724 16.931 35.6884 16.9761 35.6641 16.9727C31.7593 16.4151 28.1402 14.6051 25.3516 11.8164C22.6467 11.8164 20.0997 13.0904 18.4766 15.2539L16.8008 17.4883C16.7729 16.7387 16.7578 15.8628 16.7578 15.1905C16.7546 9.79043 21.1385 5.37109 26.5386 5.37109H27.5H28.4614Z" fill="#2B2F33"/>
<path d="M27.5 27.1777C28.687 27.1777 29.6484 28.1392 29.6484 29.3262C29.6484 30.5121 28.6859 31.4746 27.5 31.4746H25.3516C24.1646 31.4746 23.2031 30.5132 23.2031 29.3262C23.2031 28.1402 24.1656 27.1777 25.3516 27.1777H27.5Z" fill="#7DCEA0"/>
<path d="M17.4818 25.0293H14.6094C13.4224 25.0293 12.4609 24.0679 12.4609 22.8809V16.1133H16.7578H16.7664C16.7718 16.5677 16.7836 17.0264 16.8008 17.4883C16.8878 19.9966 17.1155 22.5876 17.4818 25.0293Z" fill="#7DCEA0"/>
<path d="M39.3164 44.6875C39.9094 44.6875 40.3906 44.2062 40.3906 43.6133C40.3906 43.0203 39.9094 42.5391 39.3164 42.5391C38.7234 42.5391 38.2422 43.0203 38.2422 43.6133C38.2422 44.2062 38.7234 44.6875 39.3164 44.6875Z" fill="#CFDCE5"/>
<path d="M3.86719 55H51.1328C51.726 55 52.207 54.5191 52.207 53.9258C52.207 47.2947 47.8982 41.045 41.9613 39.0654L36.8556 37.3638L35.0226 33.6978C36.6739 32.0171 37.8204 29.7932 38.2071 27.4737L38.4357 26.1035H40.3906C42.1676 26.1035 43.6133 24.6578 43.6133 22.8809V16.1133C43.6133 7.22842 36.3849 0 27.5 0C18.5924 0 11.3867 7.20769 11.3867 16.1133V22.8809C11.3867 24.2812 12.2849 25.4753 13.5352 25.9188V27.1777C13.5352 28.9547 14.9808 30.4004 16.7578 30.4004H17.7012C18.1669 31.412 18.7696 32.3489 19.5031 33.1906C19.6552 33.3654 19.8139 33.535 19.9764 33.6999L18.1444 37.3638L13.0385 39.0655C7.10187 41.045 2.79297 47.2947 2.79297 53.9258C2.79297 54.5191 3.2739 55 3.86719 55ZM27.5 51.894L26.0431 49.5551C26.0268 49.5289 26.0094 49.5034 25.9909 49.4787C25.121 48.3184 24.3096 47.1048 23.5705 45.8627L27.4015 41.8114L31.4382 45.8481C30.6942 47.0992 29.8799 48.3178 29.0093 49.4785C28.9566 49.5487 29.0313 49.4381 27.5 51.894ZM32.525 43.8964L28.8782 40.2497L33.469 35.3949L34.9304 38.3177C34.2682 40.2339 33.462 42.1031 32.525 43.8964ZM27.3585 38.73L25.2612 36.6326C25.998 36.7878 26.7492 36.8672 27.5 36.8672C28.0877 36.8672 28.6755 36.818 29.2567 36.7226L27.3585 38.73ZM21.3489 35.7588L25.8817 40.2917L22.4745 43.8948C21.5365 42.0994 20.7305 40.2308 20.0694 38.3178L21.3489 35.7588ZM50.0156 52.8516H29.4347L30.7561 50.7302C31.8332 49.2907 32.8294 47.7681 33.717 46.2043C33.7224 46.1948 33.7275 46.1852 33.7328 46.1757L33.7348 46.1723C34.9223 44.0776 35.9379 41.8704 36.7602 39.5967L41.2819 41.1036C46.0483 42.693 49.5899 47.53 50.0156 52.8516ZM14.6094 23.9551C14.0171 23.9551 13.5352 23.4732 13.5352 22.8809V17.1875H15.7156C15.7192 17.2995 15.7229 17.4121 15.7271 17.5254C15.7272 17.5293 15.7274 17.5331 15.7275 17.5369C15.8027 19.6931 15.9823 21.8865 16.2492 23.955L14.6094 23.9551ZM37.1596 16.0907C37.1596 16.0942 37.1595 16.0977 37.1595 16.1012L35.8158 15.9093C32.1657 15.3881 28.7191 13.6648 26.1111 11.0568C25.9096 10.8554 25.6364 10.7422 25.3516 10.7422C22.4666 10.7422 19.705 12.0566 17.8795 14.2772C18.3294 9.90312 22.0272 6.44531 26.5386 6.44531H28.4614C33.2749 6.44531 37.1708 10.3824 37.168 15.1905C37.168 15.5286 37.1653 15.8229 37.1596 16.0907ZM41.4648 22.8809C41.4648 23.4732 40.9829 23.9551 40.3906 23.9551H38.7512C39.0242 21.8399 39.2062 19.5891 39.2793 17.3723C39.2815 17.3097 39.2832 17.2489 39.2851 17.1875H41.4648V22.8809ZM27.5 2.14844C34.8388 2.14844 40.8736 7.83879 41.4239 15.0391H39.3147C39.2373 9.10647 34.4063 4.29688 28.4615 4.29688H26.5387C20.5941 4.29688 15.7627 9.10647 15.6854 15.0391H13.576C14.1201 7.83954 20.1284 2.14844 27.5 2.14844ZM15.6836 27.1777V26.1035H16.5642L16.7928 27.4741C16.8364 27.7346 16.89 27.9941 16.952 28.252H16.7578C16.1655 28.252 15.6836 27.7701 15.6836 27.1777ZM22.3137 30.4004C22.7571 31.6507 23.9511 32.5488 25.3516 32.5488H27.5C29.2805 32.5488 30.7227 31.1068 30.7227 29.3262C30.7227 27.5492 29.277 26.1035 27.5 26.1035H25.3516C23.92 26.1035 22.7436 27.0282 22.3118 28.252H19.1791C18.6413 26.4631 18.026 21.1994 17.89 17.8263L19.3358 15.8985C20.6637 14.1287 22.7295 13.029 24.927 12.9028C27.8185 15.6545 31.5591 17.4716 35.5121 18.036L37.0935 18.262C36.9878 20.5055 36.7718 22.7569 36.4623 24.8275L36.462 24.8296C36.3636 25.4953 36.286 25.9237 36.088 27.1203C35.519 30.5325 32.9729 33.6182 29.6118 34.4586C28.2285 34.8039 26.7712 34.8038 25.3887 34.4586C23.29 33.9339 21.3657 32.4818 20.1238 30.4004H22.3137ZM24.2773 29.3262C24.2773 28.7331 24.7584 28.252 25.3516 28.252H27.5C28.0923 28.252 28.5742 28.7338 28.5742 29.3262C28.5742 29.9194 28.0931 30.4004 27.5 30.4004H25.3516C24.7592 30.4004 24.2773 29.9185 24.2773 29.3262ZM13.718 41.1036L18.2398 39.5967C19.0682 41.8874 20.0946 44.114 21.2974 46.2289C21.2994 46.2325 21.3013 46.2362 21.3034 46.2397C22.1822 47.7854 23.1714 49.2961 24.2438 50.7301L25.5653 52.8516H4.98438C5.41009 47.53 8.95168 42.693 13.718 41.1036Z" fill="#2B2F33"/>
<path d="M42.4358 46.5154C43.4514 47.2967 44.2912 48.3164 44.8648 49.4644C45.1304 49.9961 45.776 50.2101 46.3058 49.9454C46.8365 49.6803 47.0519 49.0351 46.7869 48.5043C46.069 47.0673 45.0174 45.7907 43.7459 44.8126C43.2756 44.4507 42.6012 44.5386 42.2395 45.0089C41.8777 45.4792 41.9657 46.1536 42.4358 46.5154Z" fill="#CFDCE5"/>
</svg>
